<?xml version="1.0" encoding="UTF-8"?>
<svg xmlns="http://www.w3.org/2000/svg" xmlns:xlink="http://www.w3.org/1999/xlink" width="2000pt" height="600pt" viewBox="0 0 2000 600" version="1.1">
<g id="surface1">
<path style="fill:none;stroke-width:0.4;stroke-linecap:butt;stroke-linejoin:miter;stroke:rgb(0%,100%,25%);stroke-opacity:1;stroke-miterlimit:10;" d="M 0 200 L 991.59375 100.339844 L 1009 101.714844 L 2009 488.902344 "/>
<path style="fill:none;stroke-width:0.4;stroke-linecap:butt;stroke-linejoin:miter;stroke:rgb(0%,100%,25%);stroke-opacity:1;stroke-miterlimit:10;" d="M 0 200 L 987.183594 110.792969 L 1013.640625 112.8125 L 2013.640625 472.164062 "/>
<path style="fill:none;stroke-width:0.4;stroke-linecap:butt;stroke-linejoin:miter;stroke:rgb(0%,100%,25%);stroke-opacity:1;stroke-miterlimit:10;" d="M 0 200 L 983.101562 121.097656 L 1017.882812 123.683594 L 2017.882812 458.628906 "/>
<path style="fill:none;stroke-width:0.4;stroke-linecap:butt;stroke-linejoin:miter;stroke:rgb(0%,100%,25%);stroke-opacity:1;stroke-miterlimit:10;" d="M 0 200 L 979.328125 131.277344 L 1021.765625 134.363281 L 2021.765625 447.601562 "/>
<path style="fill:none;stroke-width:0.4;stroke-linecap:butt;stroke-linejoin:miter;stroke:rgb(0%,100%,25%);stroke-opacity:1;stroke-miterlimit:10;" d="M 0 200 L 975.839844 141.34375 L 1025.324219 144.871094 L 2025.328125 438.578125 "/>
<path style="fill:none;stroke-width:0.4;stroke-linecap:butt;stroke-linejoin:miter;stroke:rgb(0%,100%,25%);stroke-opacity:1;stroke-miterlimit:10;" d="M 0 200 L 972.621094 151.308594 L 1028.585938 155.234375 L 2028.585938 431.1875 "/>
<path style="fill:none;stroke-width:0.4;stroke-linecap:butt;stroke-linejoin:miter;stroke:rgb(0%,100%,25%);stroke-opacity:1;stroke-miterlimit:10;" d="M 0 200 L 969.65625 161.183594 L 1031.5625 165.472656 L 2031.5625 425.144531 "/>
<path style="fill:none;stroke-width:0.4;stroke-linecap:butt;stroke-linejoin:miter;stroke:rgb(0%,100%,25%);stroke-opacity:1;stroke-miterlimit:10;" d="M 0 200 L 966.933594 170.980469 L 1034.277344 175.601562 L 2034.277344 420.21875 "/>
<path style="fill:none;stroke-width:0.4;stroke-linecap:butt;stroke-linejoin:miter;stroke:rgb(0%,100%,25%);stroke-opacity:1;stroke-miterlimit:10;" d="M 0 200 L 964.4375 180.707031 L 1036.746094 185.636719 L 2036.746094 416.238281 "/>
<path style="fill:none;stroke-width:0.4;stroke-linecap:butt;stroke-linejoin:miter;stroke:rgb(0%,100%,25%);stroke-opacity:1;stroke-miterlimit:10;" d="M 0 200 L 962.164062 190.378906 L 1038.976562 195.59375 L 2038.976562 413.054688 "/>
<path style="fill:none;stroke-width:0.4;stroke-linecap:butt;stroke-linejoin:miter;stroke:rgb(0%,100%,25%);stroke-opacity:1;stroke-miterlimit:10;" d="M 0 200 L 960.101562 200 L 1040.984375 205.476562 L 2040.984375 410.542969 "/>
<path style="fill:none;stroke-width:0.4;stroke-linecap:butt;stroke-linejoin:miter;stroke:rgb(0%,100%,25%);stroke-opacity:1;stroke-miterlimit:10;" d="M 0 200 L 958.242188 209.582031 L 1042.773438 215.304688 L 2042.773438 408.601562 "/>
<path style="fill:none;stroke-width:0.4;stroke-linecap:butt;stroke-linejoin:miter;stroke:rgb(0%,100%,25%);stroke-opacity:1;stroke-miterlimit:10;" d="M 0 200 L 956.582031 219.136719 L 1044.355469 225.082031 L 2044.355469 407.144531 "/>
<path style="fill:none;stroke-width:0.4;stroke-linecap:butt;stroke-linejoin:miter;stroke:rgb(0%,100%,25%);stroke-opacity:1;stroke-miterlimit:10;" d="M 0 200 L 955.113281 228.667969 L 1045.734375 234.820312 L 2045.734375 406.089844 "/>
<path style="fill:none;stroke-width:0.4;stroke-linecap:butt;stroke-linejoin:miter;stroke:rgb(0%,100%,25%);stroke-opacity:1;stroke-miterlimit:10;" d="M 0 200 L 953.835938 238.183594 L 1046.914062 244.527344 L 2046.914062 405.375 "/>
<path style="fill:none;stroke-width:0.4;stroke-linecap:butt;stroke-linejoin:miter;stroke:rgb(0%,100%,25%);stroke-opacity:1;stroke-miterlimit:10;" d="M 0 200 L 952.742188 247.695312 L 1047.898438 254.207031 L 2047.898438 404.9375 "/>
<path style="fill:none;stroke-width:0.4;stroke-linecap:butt;stroke-linejoin:miter;stroke:rgb(0%,100%,25%);stroke-opacity:1;stroke-miterlimit:10;" d="M 0 200 L 951.832031 257.214844 L 1048.691406 263.867188 L 2048.691406 404.71875 "/>
<path style="fill:none;stroke-width:0.4;stroke-linecap:butt;stroke-linejoin:miter;stroke:rgb(0%,100%,25%);stroke-opacity:1;stroke-miterlimit:10;" d="M 0 200 L 951.105469 266.742188 L 1049.296875 273.515625 L 2049.296875 404.671875 "/>
<path style="fill:none;stroke-width:0.4;stroke-linecap:butt;stroke-linejoin:miter;stroke:rgb(0%,100%,25%);stroke-opacity:1;stroke-miterlimit:10;" d="M 0 200 L 950.5625 276.289062 L 1049.714844 283.160156 L 2049.714844 404.742188 "/>
<path style="fill:none;stroke-width:0.4;stroke-linecap:butt;stroke-linejoin:miter;stroke:rgb(0%,100%,25%);stroke-opacity:1;stroke-miterlimit:10;" d="M 0 200 L 950.199219 285.867188 L 1049.949219 292.808594 L 2049.949219 404.886719 "/>
<path style=" stroke:none;fill-rule:nonzero;fill:rgb(0%,25%,100%);fill-opacity:0.3;" d="M 1000 517.945312 C 933.332031 380.296875 933.332031 219.703125 1000 82.054688 C 1066.667969 219.703125 1066.667969 380.296875 1000 517.945312 "/>
</g>
</svg>
